<svg xmlns="http://www.w3.org/2000/svg" width="153" height="289.362" viewBox="-1 -1 153 289.362">
  <g id="Body" transform="translate(-188 -351.637)">
    <g id="Neck">
      <path id="Pfad_7" data-name="Pfad 7" d="M228.148,418.5c7.316-7.848,15.136-26.34,18.62-36.856,2.04-6.152.676-14.968-.14-27.088-.888-13.188,75.576,22.532,75.576,22.532a28.905,28.905,0,0,0-11.236,28.96c3.508,19.264,5.384,31.672,5.384,31.672-2.58-4.256-10.508-1.916-13.912-5.6-3.352-3.632-48.248-14.192-57.692-10.28C237.24,424.944,224.3,422.632,228.148,418.5Z" fill="#ffddfa" fill-rule="evenodd"/>
    </g>
    <g id="Gruppe_7" data-name="Gruppe 7" transform="translate(-208.522 -418.824)">
      <path id="Pfad_8" data-name="Pfad 8" d="M472.522,818.823c41.945,0,76,53.767,76,120,0,35.958-10.039,75.035-25.933,97.038-13.376,18.522-30.9,22.962-50.068,22.962-25.543,0-52.612-2.386-66.391-32.937-8.849-19.616-9.609-61.165-9.609-87.063C396.522,872.59,430.577,818.823,472.522,818.823Z" fill="#ffddfa" fill-rule="evenodd"/>
    </g>
    <g id="Gruppe_8" data-name="Gruppe 8" transform="translate(-166.141 -41.806)">
      <path id="Pfad_9" data-name="Pfad 9" d="M424.411,447.856c11.093,7.657,22.468,11.157,34.181,9.449,0,0,3.06,17.445,8.53,27.587,8.96,16.6,12.125,45.743,12.125,70.872,0,51.674-22.154,93.63-49.452,93.63s-49.452-41.956-49.452-93.63C380.342,519.941,424.411,475.3,424.411,447.856Z" fill="#fff" fill-rule="evenodd"/>
    </g>
  </g>
</svg>
