<svg xmlns="http://www.w3.org/2000/svg" width="81.13" height="154.76" viewBox="0 0 81.13 154.76">
  <g id="L-Arm" transform="translate(-169.176 -408.65)">
    <g id="Gruppe_21" data-name="Gruppe 21" transform="translate(2.558 13.297)">
      <path id="Pfad_19" data-name="Pfad 19" d="M214.2,437.516c-17.636,3.644-34.184,71.392-31.692,84.648,9.644,16.216,18.268,13.692,31.972,4.384,4.92-3.344,40.64-72.528,31.9-107.984C242.712,403.7,221.984,435.908,214.2,437.516Z" fill="#f3f3f3" fill-rule="evenodd"/>
    </g>
    <g id="Gruppe_22" data-name="Gruppe 22">
      <path id="Pfad_20" data-name="Pfad 20" d="M220.944,421.784c-19.66,20.66-40.928,87.124-38.436,100.38,9.644,16.216,19.468,14.9,36.108,2.7,9.636-14.448,38.768-79.216,27.944-107.8C240.164,400.184,229.892,412.376,220.944,421.784Z" fill="#ffddfa" fill-rule="evenodd"/>
    </g>
    <g id="Gruppe_23" data-name="Gruppe 23">
      <path id="Pfad_21" data-name="Pfad 21" d="M182.052,522.164l-12.876,32.912c16.452,10.2,33.36,11.264,50.788,1.948l-.9-32.16C202.408,529.048,188.32,529.168,182.052,522.164Z" fill="#595959" fill-rule="evenodd"/>
    </g>
  </g>
</svg>
