<?xml version="1.0" encoding="UTF-8" standalone="no"?>
<!DOCTYPE svg PUBLIC "-//W3C//DTD SVG 1.1//EN" "http://www.w3.org/Graphics/SVG/1.1/DTD/svg11.dtd">
<svg width="100%" height="100%" viewBox="0 0 512 768" version="1.1" xmlns="http://www.w3.org/2000/svg" xmlns:xlink="http://www.w3.org/1999/xlink" xml:space="preserve" xmlns:serif="http://www.serif.com/" style="fill-rule:evenodd;clip-rule:evenodd;stroke-linejoin:round;stroke-miterlimit:2;">
    <g id="Body">
        <g transform="matrix(6.6087,0,0,7.05882,-208.522,-418.824)">
            <path d="M71.5,116C77.847,116 83,123.617 83,133C83,138.094 81.481,143.63 79.076,146.747C77.052,149.371 74.401,150 71.5,150C67.635,150 63.539,149.662 61.454,145.334C60.115,142.555 60,136.669 60,133C60,123.617 65.153,116 71.5,116Z" style="fill:rgb(255,221,250);"/>
        </g>
        <g transform="matrix(6.14545,0,0,4.4132,-166.141,-41.8062)">
            <path d="M69.061,101.481C70.866,103.216 72.717,104.009 74.623,103.622C74.623,103.622 75.121,107.575 76.011,109.873C77.469,113.634 77.984,120.238 77.984,125.932C77.984,137.641 74.379,147.148 69.937,147.148C65.496,147.148 61.89,137.641 61.89,125.932C61.89,117.815 69.061,107.7 69.061,101.481Z" style="fill:white;"/>
        </g>
    </g>
</svg>
