<?xml version="1.0" encoding="UTF-8" standalone="no"?>
<!DOCTYPE svg PUBLIC "-//W3C//DTD SVG 1.1//EN" "http://www.w3.org/Graphics/SVG/1.1/DTD/svg11.dtd">
<svg width="100%" height="100%" viewBox="0 0 512 768" version="1.1" xmlns="http://www.w3.org/2000/svg" xmlns:xlink="http://www.w3.org/1999/xlink" xml:space="preserve" xmlns:serif="http://www.serif.com/" style="fill-rule:evenodd;clip-rule:evenodd;stroke-linecap:round;stroke-linejoin:round;stroke-miterlimit:1.5;">
    <g id="Tail">
        <g transform="matrix(4,0,0,4,0,0)">
            <path d="M52,145C52,145 44.455,135.734 38.427,138.011C32.398,140.288 29.775,143.262 32.775,155.262C35.677,166.868 33.562,170.663 27.562,175.663C23.923,178.695 19,177 19,177C19,177 24.057,185.764 34.187,184.3C45.675,182.639 49.889,168.04 50.502,154.775C50.919,145.73 52,145 52,145" style="fill:rgb(224,175,255);"/>
        </g>
        <g transform="matrix(4,0,0,4,0,0)">
            <path d="M50.537,144.685C51.707,145.301 54.673,147.922 49.778,150.932C43.378,154.868 46.176,155.882 44.985,164.308C43.012,178.272 33.72,180.211 26.858,180.163C31.137,178.036 36.97,172.473 37.928,165.133C38.779,158.618 34.431,148.285 39.031,143.56C41.319,141.21 49.188,143.976 50.537,144.685Z" style="fill:rgb(214,151,255);"/>
        </g>
    </g>
    <g id="L-Leg">
        <g transform="matrix(4,0,0,4,0,0)">
            <path d="M62,155C62,155 64.089,166.071 62,174C59.911,181.929 60,182 60,182C54.884,190.33 51.367,189.099 49,181C49,181 50.926,176.72 51,168C51.074,159.28 51.267,157.372 50,153C48.733,148.628 49.132,146.732 54.991,146.842C62.513,146.984 62,155 62,155Z" style="fill:rgb(255,221,250);"/>
        </g>
        <g transform="matrix(4,0,0,4,0,0)">
            <path d="M49,181L45,192L61,192L60,182C56.073,182.772 52.415,182.401 49,181Z" style="fill:rgb(89,89,89);"/>
        </g>
    </g>
    <g id="R-Arm">
        <g transform="matrix(4,0,0,4,0,0)">
            <path d="M77.225,104.456C80.645,109.264 87.475,115.731 88.376,135.216C87.343,137.37 83.104,139.213 82.055,137.076C79.507,131.886 73.569,113.627 72.909,107.756C72.446,103.635 76.004,102.739 77.225,104.456Z" style="fill:rgb(250,210,244);"/>
        </g>
        <g transform="matrix(4,0,0,4,0,0)">
            <path d="M88.378,135.216L90.867,140.748C87.593,142.85 85.422,144.081 81.892,142.501L82.022,137.025L88.378,135.216Z" style="fill:rgb(89,89,89);"/>
        </g>
    </g>
    <g id="Body">
        <g id="Neck" transform="matrix(4,0,0,4,-1.11022e-16,-1.11022e-16)">
            <path d="M57.037,104.626C58.866,102.664 60.821,98.041 61.692,95.412C62.202,93.874 61.861,91.67 61.657,88.64C61.435,85.343 80.551,94.273 80.551,94.273C80.551,94.273 76.864,96.696 77.742,101.513C78.619,106.329 79.088,109.431 79.088,109.431C78.443,108.367 76.461,108.952 75.61,108.03C74.772,107.122 63.548,104.482 61.187,105.46C59.31,106.236 56.075,105.658 57.037,104.626Z" style="fill:rgb(255,221,250);"/>
        </g>
        <g transform="matrix(6.6087,0,0,7.05882,-208.522,-418.824)">
            <path d="M71.5,116C77.847,116 83,123.617 83,133C83,138.094 81.481,143.63 79.076,146.747C77.052,149.371 74.401,150 71.5,150C67.635,150 63.539,149.662 61.454,145.334C60.115,142.555 60,136.669 60,133C60,123.617 65.153,116 71.5,116Z" style="fill:rgb(255,221,250);"/>
        </g>
        <g transform="matrix(6.14545,0,0,4.4132,-166.141,-41.8062)">
            <path d="M69.061,101.481C70.866,103.216 72.717,104.009 74.623,103.622C74.623,103.622 75.121,107.575 76.011,109.873C77.469,113.634 77.984,120.238 77.984,125.932C77.984,137.641 74.379,147.148 69.937,147.148C65.496,147.148 61.89,137.641 61.89,125.932C61.89,117.815 69.061,107.7 69.061,101.481Z" style="fill:white;"/>
        </g>
    </g>
    <g id="Head" transform="matrix(1,-0.000944876,0.000944876,1,-0.320367,0.281077)">
        <g transform="matrix(4,0,0,4,0,0)">
            <path d="M70.156,74.792C70.156,74.792 64.313,68.2 59.069,71.316C53.825,74.433 54.934,76.051 56.312,84.651C57.69,93.251 56.522,100.053 52.896,105.416C49.27,110.78 50.977,112.184 52.596,113.177C54.371,114.266 55.36,107.99 59.411,102.078C61.912,98.428 63.058,94.015 63.439,90.077C64.248,81.711 71.716,75.321 70.156,74.792Z" style="fill:rgb(224,175,255);"/>
        </g>
        <g transform="matrix(4,0,0,4,0,0)">
            <path d="M61.626,82.63C60.623,82.138 57.886,76.179 59.448,74.759C61.009,73.339 63.856,76.137 65.467,77.71C67.077,79.283 62.629,83.122 61.626,82.63Z" style="fill:rgb(207,175,226);"/>
        </g>
        <g transform="matrix(4,0,0,4,0,0)">
            <path d="M73.342,89.883L80.551,94.273C80.551,94.273 78.405,95.683 77.777,98.491C74.325,96.928 73.79,96.383 72.931,94.995C72.931,94.995 66.993,94.706 65.467,91.466C65.751,88.338 73.373,90.15 73.342,89.883Z" style="fill:rgb(246,210,241);"/>
        </g>
        <g transform="matrix(4,0,0,4,0,0)">
            <path d="M73.118,93.863C75.008,95.952 77.47,98.296 84.266,99.124C88.043,99.583 92.146,98.894 95.533,95.619C100.871,90.458 95.878,82.867 94.041,81.421C90.63,78.733 84.325,78.695 82.775,78.003C77.253,75.538 64.632,77.476 64.632,77.476C64.632,77.476 59.891,73.028 59.482,76.013C59.072,78.998 61.459,84.458 61.665,88.941C61.879,93.6 73.118,93.863 73.118,93.863Z" style="fill:rgb(255,221,250);"/>
        </g>
        <g transform="matrix(4,0,0,4,2.3013,0.488667)">
            <path d="M68.298,70.357C68.298,70.357 68.478,71.316 72.553,71.436C76.628,71.556 83.49,70.888 83.52,74.983C83.55,79.077 79.025,81.834 73.752,81.354C68.478,80.875 63.144,75.332 63.144,75.332L69.497,75.571L68.298,70.357Z" style="fill:rgb(214,151,255);"/>
        </g>
        <g transform="matrix(4,0,0,4,0,0)">
            <path d="M84.096,56.044L76.931,77.555C73.32,79.216 71.057,78.204 70.156,76.029L84.096,56.044Z" style="fill:white;"/>
        </g>
        <g transform="matrix(4,0,0,4,-0.671225,1.43831)">
            <ellipse cx="92.731" cy="89.235" rx="1.007" ry="1.905" style="fill:rgb(26,26,26);"/>
        </g>
        <g transform="matrix(4.23568,0,0,4,-14.6428,-1.79789)">
            <path d="M62.217,80.943C62.333,80.808 60.173,78.927 60.683,77.338C61.259,75.544 62.188,78.47 62.639,78.776" style="fill:none;stroke:black;stroke-width:0.42px;"/>
        </g>
        <g id="Auge1" transform="matrix(4,0,0,4,0,0)">
            <g transform="matrix(1.01177,0,0,1.05607,-2.08172,-4.39262)">
                <ellipse cx="79.936" cy="85.641" rx="2.487" ry="3.131" style="fill:rgb(26,26,26);"/>
            </g>
            <g transform="matrix(1.21511,0,0,1,-16.7422,-0.095887)">
                <ellipse cx="78.946" cy="85.904" rx="0.669" ry="1.522" style="fill:white;"/>
            </g>
        </g>
    </g>
    <g id="R-Leg">
        <g transform="matrix(4,0,0,4,0,0)">
            <path d="M80.415,148.936C81.297,144.821 76.354,145.196 72.422,148.026C69.399,150.201 67.447,154.971 67.499,157.167C67.603,161.563 68.49,170.87 68,176C67.344,182.865 67,182 67,182C68,187 71.307,188.591 76,182C76,182 79.361,175.55 79.176,166.888C78.99,158.226 78.854,156.214 80.415,148.936Z" style="fill:rgb(255,221,250);"/>
        </g>
        <g transform="matrix(4,0,0,4,0,0)">
            <path d="M67,182.035L64,192L81.11,192L76,182.035C73.22,182.945 70.228,182.979 67,182.035" style="fill:rgb(89,89,89);"/>
        </g>
    </g>
    <g id="L-Arm">
        <g transform="matrix(4,0,0,4,2.55766,13.2969)">
            <path d="M53.55,109.379C49.141,110.29 45.004,127.227 45.627,130.541C48.038,134.595 50.194,133.964 53.62,131.637C54.85,130.801 63.78,113.505 61.594,104.641C60.678,100.926 55.496,108.977 53.55,109.379Z" style="fill:rgb(243,243,243);"/>
        </g>
        <g transform="matrix(4,0,0,4,0,0)">
            <path d="M55.236,105.446C50.321,110.611 45.004,127.227 45.627,130.541C48.038,134.595 50.494,134.267 54.654,131.216C57.063,127.604 64.346,111.412 61.64,104.266C60.041,100.046 57.473,103.094 55.236,105.446Z" style="fill:rgb(255,221,250);"/>
        </g>
        <g transform="matrix(4,0,0,4,0,0)">
            <path d="M45.513,130.541L42.294,138.769C46.407,141.318 50.634,141.585 54.991,139.256L54.766,131.216C50.602,132.262 47.08,132.292 45.513,130.541Z" style="fill:rgb(89,89,89);"/>
        </g>
    </g>
</svg>
