<svg xmlns="http://www.w3.org/2000/svg" width="134.005" height="187.256" viewBox="0 0 134.005 187.256">
  <g id="Tail" transform="translate(-76 -550.604)">
    <g id="Gruppe_1" data-name="Gruppe 1">
      <path id="Pfad_1" data-name="Pfad 1" d="M208,580s-30.18-37.064-54.292-27.956-34.608,21-22.608,69c11.608,46.424,3.148,61.6-20.852,81.6C95.692,714.78,76,708,76,708s20.228,35.056,60.748,29.2c45.952-6.644,62.808-65.04,65.26-118.1C203.676,582.92,208,580,208,580" fill="#e0afff" fill-rule="evenodd"/>
    </g>
    <g id="Gruppe_2" data-name="Gruppe 2">
      <path id="Pfad_2" data-name="Pfad 2" d="M202.148,578.74c4.68,2.464,16.544,12.948-3.036,24.988-25.6,15.744-14.408,19.8-19.172,53.5-7.892,55.856-45.06,63.612-72.508,63.42,17.116-8.508,40.448-30.76,44.28-60.12,3.4-26.06-13.988-67.392,4.412-86.292C165.276,564.84,196.752,575.9,202.148,578.74Z" fill="#d697ff" fill-rule="evenodd"/>
    </g>
  </g>
</svg>
